<svg width="158" height="158" viewBox="0 0 158 158" fill="none" xmlns="http://www.w3.org/2000/svg">
<circle cx="79" cy="79" r="79" fill="#FFD9CB"/>
<path d="M73.125 69.4635C73.125 66.1914 75.7792 63.522 79.0156 63.522C82.268 63.522 84.9062 66.1922 84.9062 69.4635C84.9062 72.7202 82.2673 75.3897 79.0156 75.3897C75.7785 75.3897 73.125 72.7202 73.125 69.4635Z" fill="#FF652F"/>
<path d="M91.167 86.3474V90.8537C91.167 91.4863 90.6453 92.0111 90.0166 92.0111L68.0332 92.0118C67.3892 92.0118 66.8828 91.487 66.8828 90.8544V86.3481C66.8828 81.5794 70.7181 77.7056 75.4582 77.7056H82.5917C87.3165 77.7049 91.167 81.5786 91.167 86.3474L91.167 86.3474Z" fill="#FF652F"/>
<path d="M119.363 96.4093C117.2 95.1749 114.546 95.6375 112.905 97.4281L108.762 95.0358L117.629 79.5714C117.829 79.2166 117.829 78.7842 117.629 78.414L108.947 63.2743L112.905 60.9903C114.592 62.8734 117.353 63.1973 119.363 62.0091C121.848 60.574 122.753 57.3943 121.311 54.8018C119.854 52.2554 116.601 51.4375 114.147 52.8573C111.861 54.2001 111.094 56.839 111.754 58.9843L107.796 61.2836L98.8219 45.65C98.6223 45.2952 98.239 45.079 97.8245 45.079L80.168 45.0783V40.4179C82.5156 39.8931 84.2641 37.7793 84.2641 35.2789C84.2641 32.3617 81.9166 30 79.0176 30C76.1339 30 73.7863 32.3617 73.7863 35.2782C73.7863 37.7784 75.5349 39.8931 77.8671 40.4172V45.0783H60.2099C59.8114 45.0783 59.4275 45.2945 59.2285 45.6493L50.2546 61.2984L46.2511 58.9836C46.9571 56.792 46.1127 54.1686 43.8578 52.8566C41.4033 51.4368 38.1355 52.2548 36.7091 54.8011C35.2519 57.3475 36.1109 60.5272 38.6419 62.0084C40.7585 63.2435 43.5046 62.7957 45.1148 60.9896L49.103 63.3044L40.4204 78.4133C40.2055 78.7835 40.2055 79.216 40.4204 79.5707L49.2719 95.0035L45.0993 97.4267C43.519 95.6675 40.8655 95.1581 38.641 96.4079C36.1099 97.8892 35.2662 101.115 36.7082 103.615C38.0888 106.085 41.2793 107.057 43.8569 105.56C45.0686 104.865 45.9436 103.723 46.3115 102.365C46.5723 101.393 46.557 100.375 46.2503 99.4327L50.4383 97.025L59.2286 112.35C59.4282 112.705 59.8114 112.921 60.21 112.921H77.8672V117.583C75.5356 118.108 73.7864 120.222 73.7864 122.722C73.7864 125.638 76.1332 128 79.0176 128C81.9166 128 84.2642 125.639 84.2642 122.722C84.2642 120.222 82.5156 118.107 80.1681 117.583V112.922H97.8252C98.2398 112.922 98.623 112.705 98.8227 112.351L107.598 97.0409L111.755 99.4333C111.064 101.656 111.924 104.279 114.148 105.56C116.725 107.057 119.901 106.085 121.312 103.616C122.723 101.116 121.91 97.8905 119.363 96.4093ZM106.047 83.0902L96.9654 83.9083C96.5363 85.899 95.7385 87.7666 94.7105 89.4335L100.525 96.4708L95.7384 101.317L88.7433 95.4367C87.0712 96.4863 85.2302 97.2889 83.2359 97.736L82.4228 106.857H75.6266L74.8135 97.736C72.8347 97.2728 70.9783 96.4863 69.3061 95.4367L62.3263 101.317L57.5096 96.4708L63.3543 89.4335C62.3263 87.7667 61.5284 85.8992 61.084 83.9083L52.0022 83.0902V76.253L61.084 75.435C61.5292 73.4289 62.3263 71.5766 63.3696 69.879L57.5096 62.8571L62.3263 58.0267L69.3061 63.9066C70.9782 62.857 72.8346 62.0698 74.8135 61.6073L75.6266 52.4861H82.4228L83.2359 61.6073C85.23 62.0551 87.0712 62.857 88.7433 63.9066L95.7384 58.0267L100.525 62.8571L94.6799 69.879C95.7385 71.5766 96.5363 73.4287 96.9654 75.435L106.047 76.253V83.0902Z" fill="#FF652F"/>
</svg>
