<svg width="36" height="36" viewBox="0 0 36 36" fill="none" xmlns="http://www.w3.org/2000/svg">
<rect width="36" height="36" rx="18" fill="#5330FF"/>
<path d="M28 22.19C28 25.83 25.83 28 22.19 28H21C20.45 28 20 27.55 20 27V21.23C20 20.96 20.22 20.73 20.49 20.73L22.25 20.7C22.39 20.69 22.51 20.59 22.54 20.45L22.89 18.54C22.92 18.36 22.78 18.19 22.59 18.19L20.46 18.22C20.18 18.22 19.96 18 19.95 17.73L19.91 15.28C19.91 15.12 20.04 14.98 20.21 14.98L22.61 14.94C22.78 14.94 22.91 14.81 22.91 14.64L22.87 12.24C22.87 12.07 22.74 11.94 22.57 11.94L19.87 11.98C18.21 12.01 16.89 13.37 16.92 15.03L16.97 17.78C16.98 18.06 16.76 18.28 16.48 18.29L15.28 18.31C15.11 18.31 14.98 18.44 14.98 18.61L15.01 20.51C15.01 20.68 15.14 20.81 15.31 20.81L16.51 20.79C16.79 20.79 17.01 21.01 17.02 21.28L17.11 26.98C17.12 27.54 16.67 28 16.11 28H13.81C10.17 28 8 25.83 8 22.18V13.81C8 10.17 10.17 8 13.81 8H22.19C25.83 8 28 10.17 28 13.81V22.19V22.19Z" fill="white"/>
</svg>
