<svg width="158" height="158" viewBox="0 0 158 158" fill="none" xmlns="http://www.w3.org/2000/svg">
<circle cx="79" cy="79" r="79" fill="#EECAFF"/>
<path d="M88.4426 47.9089C88.6772 53.6322 84.6205 58.4805 79.3818 58.7368C74.143 58.9939 69.7059 54.562 69.4706 48.8386C69.236 43.1153 73.2927 38.267 78.5314 38.0106C83.7702 37.7536 88.2073 42.1855 88.4426 47.9089" fill="#C64EFF"/>
<path d="M41.335 98.0678H116.665C119.559 98.0678 122 95.4993 122 92.239C122 88.9787 119.649 86.4102 116.665 86.4102H88.9021V70.3061C89.8969 70.0097 90.8916 69.6142 91.8864 69.1207L109.249 59.7352C111.42 58.5498 112.324 55.6843 111.239 53.3137C110.154 50.9424 107.531 49.9548 105.361 51.1402L87.9981 60.5257C86.7321 61.2176 85.3759 61.514 84.019 61.514L73.981 61.5133C72.6248 61.5133 71.1778 61.1184 70.0019 60.525L52.639 51.1395C50.4684 49.9542 47.8461 50.9417 46.7612 53.313C45.6762 55.6843 46.5802 58.5493 48.7507 59.7345L66.1136 69.12C67.0182 69.6142 68.1031 70.009 69.0979 70.3054V86.5081L41.3353 86.5088C38.4412 86.5088 36 89.0773 36 92.3376C36 95.5979 38.3511 98.0678 41.3353 98.0678H41.335Z" fill="#C64EFF"/>
<path d="M55.5339 102.217H38.6232C37.448 102.217 36.4531 103.304 36.4531 104.687V117.53C36.4531 118.913 37.4479 120 38.7139 120H55.6247C56.8907 120 57.8855 118.913 57.8855 117.53V104.687C57.7953 103.304 56.8005 102.217 55.5344 102.217H55.5339Z" fill="#C64EFF"/>
<path d="M119.289 102.217H102.378C101.112 102.217 100.117 103.304 100.117 104.687V117.53C100.117 118.913 101.112 120 102.378 120H119.289C120.555 120 121.55 118.913 121.55 117.53L121.55 104.687C121.459 103.304 120.465 102.217 119.289 102.217H119.289Z" fill="#C64EFF"/>
</svg>
