<svg width="36" height="36" viewBox="0 0 36 36" fill="none" xmlns="http://www.w3.org/2000/svg">
<rect width="36" height="36" rx="18" fill="#54525A"/>
<path d="M22.19 8H13.81C10.17 8 8 10.17 8 13.81V22.18C8 25.83 10.17 28 13.81 28H22.18C25.82 28 27.99 25.83 27.99 22.19V13.81C28 10.17 25.83 8 22.19 8ZM18 21.88C15.86 21.88 14.12 20.14 14.12 18C14.12 15.86 15.86 14.12 18 14.12C20.14 14.12 21.88 15.86 21.88 18C21.88 20.14 20.14 21.88 18 21.88ZM23.92 12.88C23.87 13 23.8 13.11 23.71 13.21C23.61 13.3 23.5 13.37 23.38 13.42C23.26 13.47 23.13 13.5 23 13.5C22.73 13.5 22.48 13.4 22.29 13.21C22.2 13.11 22.13 13 22.08 12.88C22.03 12.76 22 12.63 22 12.5C22 12.37 22.03 12.24 22.08 12.12C22.13 11.99 22.2 11.89 22.29 11.79C22.52 11.56 22.87 11.45 23.19 11.52C23.26 11.53 23.32 11.55 23.38 11.58C23.44 11.6 23.5 11.63 23.56 11.67C23.61 11.7 23.66 11.75 23.71 11.79C23.8 11.89 23.87 11.99 23.92 12.12C23.97 12.24 24 12.37 24 12.5C24 12.63 23.97 12.76 23.92 12.88Z" fill="white"/>
</svg>
