<svg width="123" height="123" viewBox="0 0 123 123" fill="none" xmlns="http://www.w3.org/2000/svg">
<circle cx="61.5" cy="61.5" r="59.5" fill="url(#paint0_linear_1037_52545)" fill-opacity="0.5" stroke="white" stroke-width="4"/>
<path d="M24.4794 45.5331L101.59 44.8154L103.846 97.2319L24.001 96.661L24.4794 45.5331Z" fill="#5330FF"/>
<path d="M24.4795 45.544L60.9062 15.9405C61.6545 15.3321 62.5895 15 63.554 15C64.5184 15 65.4534 15.3321 66.2017 15.9405L101.585 44.8209" fill="#5330FF"/>
<g opacity="0.3">
<path d="M24.4795 45.544L60.9062 15.9405C61.6545 15.3321 62.5895 15 63.554 15C64.5184 15 65.4534 15.3321 66.2017 15.9405L101.585 44.8209" fill="black"/>
</g>
<path d="M24.001 96.6503C23.9086 96.5579 30.0631 89.8054 37.7562 81.5686C45.4493 73.3318 51.7669 66.7478 51.8648 66.8239C51.9626 66.9 45.8027 73.6634 38.1042 81.9056C30.4056 90.1479 24.0989 96.7482 24.001 96.6503Z" fill="#263238"/>
<path d="M103.846 97.2317C103.748 97.3241 97.7244 90.7075 90.3901 82.5142C83.0558 74.3209 77.1895 67.5629 77.2873 67.4759C77.3852 67.389 83.4092 74.0001 90.7489 82.1989C98.0886 90.3976 103.944 97.1447 103.846 97.2317Z" fill="#263238"/>
<g opacity="0.5">
<path d="M101.59 44.8154L62.9342 75.8271L24.4795 45.5331" fill="black"/>
</g>
<path d="M28.3722 48.3928L28.1982 24.3077L95.7182 23.3726L96.5283 48.7082L62.9287 75.4193L28.3722 48.3928Z" fill="#FAFAFA"/>
<path d="M28.3723 48.3928C28.3723 48.3928 28.5952 48.5505 29.0139 48.8712L30.8515 50.2903L37.8433 55.7271C43.8673 60.4299 52.5227 67.1444 62.9995 75.3432H62.8581L96.4414 48.6103L96.3924 48.7245C96.2348 43.8911 96.0717 38.8186 95.9086 33.659C95.7944 30.1849 95.6857 26.7488 95.5769 23.3834L95.7183 23.5193L28.2038 24.411L28.2908 24.3186C28.3234 31.892 28.356 37.9106 28.3723 42.0317C28.3723 44.0923 28.3723 45.6798 28.3723 46.7618C28.3723 47.3054 28.3723 47.7023 28.3723 47.985C28.3723 48.2678 28.3723 48.4037 28.3723 48.4037C28.3723 48.4037 28.3723 48.2678 28.3723 47.9959C28.3723 47.7241 28.3723 47.3109 28.3723 46.7835C28.3723 45.6961 28.3397 44.1195 28.318 42.0643C28.2799 37.9269 28.2201 31.9084 28.1494 24.3186V24.2316H28.2364L95.7128 23.2529H95.8542V23.3943C95.9629 26.7597 96.0717 30.1903 96.1859 33.6644C96.349 38.824 96.5121 43.8965 96.6643 48.7299V48.8006L96.6099 48.8441L62.9886 75.5389L62.9179 75.5987L62.8472 75.5389L37.7182 55.8195L30.7808 50.3501L28.9704 48.9148L28.3723 48.3928Z" fill="#263238"/>
<path d="M85.0733 35.5187C85.0733 35.5948 74.7433 35.7416 62.0103 35.8449C49.2772 35.9482 38.9473 35.9699 38.9473 35.8938C38.9473 35.8177 49.2772 35.6709 62.0103 35.5622C74.7433 35.4534 85.0733 35.4371 85.0733 35.5187Z" fill="#263238"/>
<path d="M85.0835 42.3198C85.0835 42.3959 74.7535 42.5482 62.0259 42.6515C49.2983 42.7548 38.9629 42.7765 38.9629 42.695C38.9629 42.6134 49.2928 42.4721 62.0259 42.3688C74.7589 42.2655 85.0835 42.2437 85.0835 42.3198Z" fill="#263238"/>
<path d="M85.1001 50.1597C85.1001 50.2412 74.7701 50.388 62.0425 50.4913C49.3149 50.5946 38.9795 50.6164 38.9795 50.5348C38.9795 50.4533 49.3095 50.3119 62.0425 50.2086C74.7755 50.1053 85.1001 50.0836 85.1001 50.1597Z" fill="#263238"/>
<path d="M85.1164 57.9999C85.1164 58.0815 75.2704 58.2229 63.119 58.3207C50.9677 58.4186 41.1162 58.4403 41.1162 58.3588C41.1162 58.2772 50.9623 58.1359 63.119 58.038C75.2758 57.9401 85.1164 57.9238 85.1164 57.9999Z" fill="#263238"/>
<path d="M76.504 64.8993C76.4156 64.924 76.3239 64.935 76.2322 64.9319L75.4547 64.9645L72.6058 65.0352L63.1947 65.2092C59.5194 65.2744 56.1866 65.2961 53.7781 65.2961H50.9292H50.1517C50.0603 65.2985 49.969 65.2894 49.8799 65.269C49.9683 65.2442 50.06 65.2332 50.1517 65.2363L50.9238 65.2037L53.7781 65.133L63.1892 64.9645C66.8645 64.8938 70.1919 64.8721 72.6004 64.8721H75.4547H76.2322C76.3235 64.8722 76.4145 64.8813 76.504 64.8993Z" fill="#263238"/>
<path d="M67.8058 71.5318C66.1792 71.6783 64.5453 71.7291 62.9127 71.6841C61.2805 71.7356 59.6467 71.692 58.0195 71.5536C59.6464 71.4103 61.2801 71.3595 62.9127 71.4013C64.5449 71.3531 66.1785 71.3967 67.8058 71.5318Z" fill="#263238"/>
<defs>
<linearGradient id="paint0_linear_1037_52545" x1="59.9915" y1="4" x2="149.682" y2="35.061" gradientUnits="userSpaceOnUse">
<stop stop-color="#F2EFFF"/>
<stop offset="0.921875" stop-color="#C8BDFF"/>
</linearGradient>
</defs>
</svg>
