<svg width="158" height="158" viewBox="0 0 158 158" fill="none" xmlns="http://www.w3.org/2000/svg">
<circle cx="79" cy="79" r="79" fill="#FFC8D5"/>
<path d="M65.6552 36.0017C49.3448 36.0017 36 49.3463 36 65.6563C36 80.9284 47.5655 93.6807 62.6897 95.1617V90.7136C62.6897 90.1205 62.6897 89.6756 62.8379 89.0826C49.7897 87.5998 40.4491 75.738 42.0793 62.8374C43.7095 49.9368 55.4241 40.449 68.325 42.0792C79.2974 43.4136 87.8974 52.0135 89.0836 62.8374C89.6767 62.6891 90.2698 62.6891 90.8629 62.6891H95.3112C93.6802 47.5653 80.9284 36 65.656 36L65.6552 36.0017ZM65.6552 44.8981C54.2379 44.8981 44.8966 54.2393 44.8966 65.6563C44.8966 76.7768 53.6448 85.8214 64.6181 86.4145C65.656 85.5249 66.8422 85.08 68.1767 84.9318C68.4733 83.8939 68.9181 82.8559 69.5112 81.818C67.4353 79.4457 67.4353 75.8871 69.6595 73.663L73.5146 69.8079C75.7388 67.5838 79.2974 67.5838 81.5215 69.6596L84.6353 68.3252C84.6353 66.9907 85.2284 65.6563 86.1181 64.7666C85.8215 53.6462 76.7759 44.8981 65.6552 44.8981ZM67.1379 65.6563C67.1379 66.2494 66.8414 66.8425 66.2483 66.9907L52.9034 72.9217C52.7552 73.0699 52.4586 73.0699 52.3103 73.0699C51.4207 73.0699 50.8276 72.4768 50.8276 71.5872C50.8276 70.9941 51.1241 70.5493 51.7172 70.2527L64.1724 64.7666V53.7944C64.1724 52.9048 64.7655 52.3117 65.6552 52.3117C66.5448 52.3117 67.1379 52.9048 67.1379 53.7944V65.6563ZM105.69 93.8281C105.69 100.352 100.352 105.69 93.8276 105.69C87.3035 105.69 81.9655 100.352 81.9655 93.8281C81.9655 87.3041 87.3035 81.9663 93.8276 81.9663C100.352 81.9663 105.69 87.3041 105.69 93.8281ZM119.034 87.8972H117.107C116.514 85.5249 115.624 83.3008 114.438 81.2249L115.772 79.8905C116.366 79.2974 116.662 78.556 116.662 77.8147C116.662 77.0733 116.366 76.3319 115.772 75.7388L111.917 71.8837C110.731 70.8458 108.952 70.8458 107.766 71.8837L106.431 73.2182C104.355 72.032 102.131 70.9941 99.7586 70.401V68.6217C99.7586 66.9907 98.4241 65.8046 96.9414 65.6563H90.8621C89.231 65.6563 88.0448 66.9907 87.8966 68.4735V70.401C85.5241 70.9941 83.3 71.8837 81.2241 73.2182L79.8897 71.8837C78.7035 70.8458 76.9241 70.8458 75.7379 71.8837L71.8828 75.7388C71.2897 76.3319 70.9931 77.0733 70.9931 77.8147C70.9931 78.556 71.2897 79.2974 71.8828 79.8905L73.2172 81.2249C72.031 83.3008 70.9931 85.5249 70.4 87.8972H68.6207C66.9897 87.8972 65.8035 89.2317 65.6552 90.7144V96.7936C65.6552 98.4246 66.9897 99.6108 68.4724 99.7591H70.4C70.9931 102.131 71.8828 104.356 73.2172 106.431L71.8828 107.766C71.2897 108.359 70.9931 109.1 70.9931 109.842C70.9931 110.583 71.2897 111.324 71.8828 111.917L75.7379 115.773C76.9241 116.81 78.7035 116.81 79.8897 115.773L81.2241 114.438C83.3 115.624 85.5241 116.662 87.8966 117.255V119.183C87.8966 120.814 89.231 122 90.7138 122H96.7931C98.4241 122 99.6103 120.666 99.7586 119.183V117.255C102.131 116.662 104.355 115.773 106.431 114.586L107.766 115.921C108.952 116.959 110.731 116.959 111.917 115.921L115.772 112.066C116.366 111.473 116.662 110.731 116.662 109.99C116.662 109.249 116.366 108.507 115.772 107.914L114.438 106.58C115.624 104.504 116.662 102.28 117.255 99.9073H119.183C120.814 99.9073 122 98.5729 122 97.0901V90.8627C122 89.2317 120.666 87.8972 119.034 87.8972C119.183 87.8972 119.183 87.8972 119.034 87.8972ZM93.8276 108.655C85.6724 108.655 79 101.983 79 93.8281C79 85.6731 85.6724 79.0008 93.8276 79.0008C101.983 79.0008 108.655 85.6731 108.655 93.8281C108.655 101.983 101.983 108.655 93.8276 108.655Z" fill="#FF4B76"/>
</svg>
