<svg width="158" height="158" viewBox="0 0 158 158" fill="none" xmlns="http://www.w3.org/2000/svg">
<circle cx="79" cy="79" r="79" fill="#DBD3FF"/>
<path d="M83.7771 92.4372H74.2221C72.9543 92.4372 71.7393 91.8712 70.8435 90.8634C69.9476 89.8556 69.4438 88.4879 69.4438 87.0625H36V105.875C36 110.151 37.5101 114.253 40.1984 117.277C42.8859 120.301 46.5317 122 50.3333 122H107.667C111.468 122 115.114 120.301 117.802 117.277C120.49 114.253 122 110.151 122 105.875V87.0625H88.5562C88.5562 88.4878 88.0523 89.8556 87.1565 90.8634C86.2607 91.8712 85.0456 92.4372 83.7779 92.4372H83.7771Z" fill="#5330FF"/>
<path d="M107.667 52.1249H93.3333V46.7502C93.3333 43.8996 92.3263 41.165 90.5346 39.1485C88.7422 37.1329 86.3122 36 83.7775 36H74.2225C71.6877 36 69.2578 37.1329 67.4653 39.1485C65.6737 41.165 64.6667 43.8996 64.6667 46.7502V52.1249H50.3333C46.5317 52.1249 42.8859 53.8238 40.1984 56.8481C37.5101 59.8724 36 63.9739 36 68.2498V79H69.4437C69.4437 77.5747 69.9476 76.2069 70.8435 75.1991C71.7393 74.1913 72.9544 73.6253 74.2221 73.6253H83.7779H83.7771C85.0448 73.6253 86.2598 74.1913 87.1556 75.1991C88.0515 76.2069 88.5554 77.5746 88.5554 79H121.999V68.2498C121.999 63.9739 120.489 59.8724 117.801 56.8481C115.113 53.8238 111.467 52.1249 107.666 52.1249H107.667ZM88.5558 52.1249H69.4442V46.7502C69.4458 45.3249 69.9497 43.959 70.8455 42.9512C71.7413 41.9434 72.9556 41.3765 74.2224 41.3756H83.7783H83.7775C85.0444 41.3765 86.2586 41.9434 87.1544 42.9512C88.0502 43.959 88.5541 45.325 88.5558 46.7502L88.5558 52.1249Z" fill="#5330FF"/>
</svg>
