<svg width="124" height="123" viewBox="0 0 124 123" fill="none" xmlns="http://www.w3.org/2000/svg">
<circle cx="61.7208" cy="61.5" r="59.5" fill="url(#paint0_linear_1037_53259)" stroke="white" stroke-width="4"/>
<path d="M34.845 34.8592C36.3317 32.3074 38.6476 30.1974 41.7927 28.5292C44.9378 26.861 48.5821 26.0757 52.7255 26.1734C56.8571 26.2749 61.0183 27.5373 65.2091 29.9604C69.106 32.2143 72.1266 34.9222 74.2711 38.0839C76.3273 40.9839 77.5439 44.3946 77.7873 47.9411C77.9937 51.2347 77.2133 54.5151 75.5458 57.3629C74.3872 59.4755 72.7152 61.2622 70.6841 62.5583C68.865 63.699 66.8823 64.5552 64.8047 65.0973C62.8075 65.611 59.3043 66.3866 54.2951 67.4242C53.1237 67.6709 51.9662 67.9796 50.8274 68.349C50.0465 68.5986 49.2986 68.9416 48.6 69.3707C48.0489 69.7205 47.5347 70.1253 47.0652 70.5787C46.6127 71.0201 45.8606 71.8081 44.8031 72.9546C42.6748 75.4509 40.2692 75.9224 37.5862 74.3691C36.9282 74.0095 36.3481 73.5231 35.8793 72.9379C35.4105 72.3527 35.0624 71.6804 34.8551 70.9598C34.433 69.4963 34.7419 67.8651 35.7818 66.0661C37.8391 62.2159 41.3404 59.3396 45.5168 58.0689C47.9041 57.3756 50.3248 56.8033 52.7698 56.3541C55.3576 55.8413 57.2571 55.4292 58.4639 55.1042C59.6636 54.7865 60.8127 54.302 61.8777 53.6648C62.9421 53.0354 63.8234 52.1386 64.4342 51.0634C65.0434 50.0467 65.426 48.9105 65.5559 47.7325C65.6858 46.5544 65.5598 45.3621 65.1866 44.2372C64.4391 41.829 62.8122 39.8956 60.3061 38.437C57.3499 36.7276 54.7437 36.2153 52.4873 36.8999C50.2309 37.5846 47.7739 39.1007 45.1163 41.4485C42.4508 43.9546 39.844 44.4753 37.2961 43.0105C36.5777 42.6141 35.9499 42.0722 35.453 41.4193C34.9561 40.7664 34.6009 40.017 34.4102 39.219C34.19 38.4998 34.1151 37.7439 34.1897 36.9955C34.2643 36.247 34.4871 35.5208 34.845 34.8592V34.8592ZM28.9443 90.3499C27.3531 89.4581 26.1523 88.0042 25.5772 86.2731C24.9705 84.5085 25.2173 82.6721 26.3176 80.7639C26.7648 79.9614 27.3736 79.2604 28.1055 78.7052C28.8375 78.15 29.6766 77.7527 30.5699 77.5384C31.4689 77.3035 32.406 77.2521 33.3253 77.3874C34.2446 77.5227 35.1272 77.8418 35.9204 78.3257C36.7191 78.7714 37.42 79.3731 37.9816 80.0951C38.5432 80.817 38.954 81.6444 39.1896 82.5282C39.4252 83.412 39.4808 84.3341 39.353 85.2398C39.2253 86.1455 38.9169 87.0162 38.4461 87.8004C37.3589 89.6778 35.9033 90.8036 34.0792 91.1778C32.3245 91.5622 30.4893 91.2663 28.9443 90.3499Z" fill="#5330FF"/>
<g opacity="0.5">
<path d="M84.8747 51.8508C85.0156 50.1454 85.6406 48.5157 86.6764 47.1535C87.8826 45.5191 89.492 44.2253 91.3474 43.3982C93.506 42.426 95.876 42.0174 98.2356 42.2105C100.432 42.2949 102.581 42.8761 104.521 43.9107C106.201 44.8054 107.603 46.1453 108.573 47.7836C109.474 49.3165 109.896 51.0839 109.784 52.8585C109.737 54.149 109.364 55.4067 108.702 56.515C108.105 57.4989 107.362 58.3859 106.498 59.1454C105.667 59.8711 104.176 61.0849 102.023 62.7867C101.52 63.1838 101.039 63.6098 100.585 64.0626C100.271 64.3687 99.9957 64.7126 99.7661 65.0864C99.5841 65.3853 99.4344 65.7026 99.3196 66.0332C99.2101 66.3524 99.0395 66.9106 98.8032 67.6941C98.3688 69.4078 97.3301 70.2116 95.6873 70.1054C95.2856 70.0913 94.8907 69.9978 94.5253 69.8305C94.1599 69.6631 93.8312 69.4252 93.5581 69.1304C93.265 68.7767 93.0487 68.3658 92.9231 67.9239C92.7974 67.482 92.7652 67.0188 92.8284 66.5638C92.8888 64.2266 93.8736 62.0086 95.5668 60.3964C96.5401 59.4862 97.5585 58.6254 98.618 57.8172C99.7337 56.9551 100.543 56.2975 101.045 55.8549C101.542 55.414 101.976 54.9058 102.332 54.3449C102.69 53.7867 102.897 53.1449 102.932 52.4827C102.98 51.8499 102.89 51.2143 102.669 50.6195C102.448 50.0246 102.101 49.4847 101.651 49.0368C100.663 48.0506 99.332 47.4843 97.9362 47.4562C96.11 47.347 94.7419 47.7263 93.8319 48.5941C92.7503 49.7191 91.921 51.0619 91.3993 52.5328C90.722 54.3757 89.5927 55.2422 88.0117 55.1324C87.5724 55.114 87.1417 55.0044 86.747 54.8106C86.3523 54.6169 86.0022 54.3432 85.7189 54.0069C85.4423 53.7215 85.2251 53.3839 85.0802 53.0137C84.9353 52.6435 84.8654 52.2482 84.8747 51.8508V51.8508ZM95.3859 79.8479C94.4101 79.8027 93.4861 79.3955 92.7942 78.7058C92.4362 78.3412 92.1634 77.9019 91.9953 77.4194C91.8272 76.9369 91.7681 76.4231 91.8222 75.915C91.8404 75.4226 91.9612 74.9394 92.1769 74.4963C92.3926 74.0532 92.6985 73.66 93.0748 73.3419C93.4495 73.0138 93.8866 72.7649 94.36 72.6101C94.8334 72.4554 95.3331 72.398 95.8293 72.4414C96.3187 72.463 96.7988 72.5827 97.2411 72.7933C97.6834 73.0039 98.0788 73.3012 98.4041 73.6675C98.7294 74.0338 98.9777 74.4617 99.1345 74.9258C99.2913 75.39 99.3533 75.8808 99.3168 76.3694C99.3123 76.8815 99.1947 77.3862 98.9724 77.8476C98.7501 78.3089 98.4285 78.7154 98.0307 79.0379C97.283 79.6322 96.3381 79.9216 95.3859 79.8479V79.8479Z" fill="#5330FF"/>
</g>
<defs>
<linearGradient id="paint0_linear_1037_53259" x1="60.2124" y1="4" x2="149.903" y2="35.061" gradientUnits="userSpaceOnUse">
<stop stop-color="#F2EFFF"/>
<stop offset="0.921875" stop-color="#C8BDFF"/>
</linearGradient>
</defs>
</svg>
