<svg width="36" height="36" viewBox="0 0 36 36" fill="none" xmlns="http://www.w3.org/2000/svg">
<rect width="36" height="36" rx="18" fill="#54525A"/>
<path d="M27.98 17.41C27.64 11.61 22.37 7.13996 16.3 8.13996C12.12 8.82996 8.77005 12.2199 8.12005 16.3999C7.74005 18.8199 8.24007 21.1099 9.33007 22.9999L8.44006 26.3099C8.24006 27.0599 8.93004 27.7399 9.67004 27.5299L12.93 26.63C14.41 27.5 16.14 27.9999 17.99 27.9999C23.63 27.9999 28.31 23.03 27.98 17.41ZM22.8801 21.7199C22.7901 21.8999 22.68 22.07 22.54 22.23C22.29 22.5 22.02 22.7 21.72 22.82C21.42 22.95 21.09 23.01 20.74 23.01C20.23 23.01 19.68 22.89 19.11 22.64C18.53 22.39 17.9601 22.0599 17.3901 21.6499C16.8101 21.2299 16.2701 20.7599 15.7501 20.2499C15.2301 19.7299 14.77 19.1799 14.35 18.6099C13.94 18.0399 13.61 17.4699 13.37 16.8999C13.13 16.3299 13.0101 15.78 13.0101 15.26C13.0101 14.92 13.0701 14.59 13.1901 14.29C13.3101 13.98 13.5001 13.7 13.7701 13.45C14.0901 13.13 14.4401 12.98 14.8101 12.98C14.9501 12.98 15.09 13.01 15.22 13.07C15.35 13.13 15.4701 13.22 15.5601 13.35L16.72 14.9899C16.81 15.1199 16.88 15.2299 16.92 15.3399C16.97 15.4499 16.99 15.5499 16.99 15.6499C16.99 15.7699 16.9501 15.89 16.8801 16.01C16.8101 16.13 16.72 16.2499 16.6 16.3699L16.22 16.7699C16.16 16.8299 16.1401 16.8899 16.1401 16.9699C16.1401 17.0099 16.15 17.0499 16.16 17.0899C16.18 17.1299 16.1901 17.1599 16.2001 17.1899C16.2901 17.3599 16.45 17.5699 16.67 17.8299C16.9 18.0899 17.1401 18.3599 17.4001 18.6199C17.6701 18.8899 17.9301 19.1299 18.2001 19.3599C18.4601 19.5799 18.68 19.73 18.85 19.82C18.88 19.83 18.9101 19.8499 18.9401 19.8599C18.9801 19.8799 19.0201 19.88 19.0701 19.88C19.1601 19.88 19.2201 19.85 19.2801 19.79L19.66 19.41C19.79 19.28 19.9101 19.19 20.0201 19.13C20.1401 19.06 20.2501 19.0199 20.3801 19.0199C20.4801 19.0199 20.5801 19.0399 20.6901 19.0899C20.8001 19.1399 20.92 19.2 21.04 19.29L22.7001 20.4699C22.8301 20.5599 22.92 20.67 22.98 20.79C23.03 20.92 23.0601 21.0399 23.0601 21.1799C23.0001 21.3499 22.9601 21.5399 22.8801 21.7199Z" fill="white"/>
</svg>
